<svg width="20" height="20" viewBox="0 0 20 20" fill="none" xmlns="http://www.w3.org/2000/svg">
<rect width="19" height="19" rx="7" fill="white"/>
<path d="M8.5 11V8.5H11V11H8.5Z" fill="black"/>
<path fill-rule="evenodd" clip-rule="evenodd" d="M9.79525 1.32337e-07C11.6318 -8.0335e-06 13.0714 -1.45286e-05 14.2135 0.123728C15.3791 0.250006 16.3234 0.512324 17.1298 1.09815C17.6179 1.45281 18.0472 1.88209 18.4018 2.37024C18.9877 3.17656 19.25 4.12094 19.3763 5.28648C19.5 6.42859 19.5 7.86816 19.5 9.70465V9.79527C19.5 11.6318 19.5 13.0714 19.3763 14.2135C19.25 15.3791 18.9877 16.3234 18.4018 17.1298C18.0472 17.6179 17.6179 18.0472 17.1298 18.4018C16.3234 18.9877 15.3791 19.25 14.2135 19.3763C13.0714 19.5 11.6318 19.5 9.79535 19.5H9.70473C7.86824 19.5 6.42859 19.5 5.28648 19.3763C4.12094 19.25 3.17656 18.9877 2.37024 18.4018C1.88209 18.0472 1.45281 17.6179 1.09815 17.1298C0.512324 16.3234 0.250006 15.3791 0.123728 14.2135C-1.45286e-05 13.0714 -8.0335e-06 11.6318 1.32337e-07 9.79525V9.70475C-8.0335e-06 7.86821 -1.45286e-05 6.42861 0.123728 5.28648C0.250006 4.12094 0.512324 3.17656 1.09815 2.37024C1.45281 1.88209 1.88209 1.45281 2.37024 1.09815C3.17656 0.512324 4.12094 0.250006 5.28648 0.123728C6.42861 -1.45286e-05 7.86821 -8.0335e-06 9.70475 1.32337e-07H9.79525ZM8.5 4.75C8.5 4.33579 8.16421 4 7.75 4C7.33579 4 7 4.33579 7 4.75V7H4.75C4.33579 7 4 7.33579 4 7.75C4 8.16421 4.33579 8.5 4.75 8.5H7V11H4.75C4.33579 11 4 11.3358 4 11.75C4 12.1642 4.33579 12.5 4.75 12.5H7V14.75C7 15.1642 7.33579 15.5 7.75 15.5C8.16421 15.5 8.5 15.1642 8.5 14.75V12.5H11V14.75C11 15.1642 11.3358 15.5 11.75 15.5C12.1642 15.5 12.5 15.1642 12.5 14.75V12.5H14.75C15.1642 12.5 15.5 12.1642 15.5 11.75C15.5 11.3358 15.1642 11 14.75 11H12.5V8.5H14.75C15.1642 8.5 15.5 8.16421 15.5 7.75C15.5 7.33579 15.1642 7 14.75 7H12.5V4.75C12.5 4.33579 12.1642 4 11.75 4C11.3358 4 11 4.33579 11 4.75V7H8.5V4.75Z" fill="black"/>
</svg>
